<svg xmlns="http://www.w3.org/2000/svg" xmlns:xlink="http://www.w3.org/1999/xlink" width="189" zoomAndPan="magnify" viewBox="0 0 141.75 141.750002" height="189" preserveAspectRatio="xMidYMid meet" version="1.0"><defs><clipPath id="fadaf7cef9"><path d="M 5 0 L 137 0 L 137 141.5 L 5 141.5 Z M 5 0 " clip-rule="nonzero"/></clipPath><clipPath id="4f073a746a"><path d="M 0.363281 0 L 131.320312 0 L 131.320312 141.5 L 0.363281 141.5 Z M 0.363281 0 " clip-rule="nonzero"/></clipPath><clipPath id="aad18a5c2a"><rect x="0" width="132" y="0" height="142"/></clipPath></defs><g clip-path="url(#fadaf7cef9)"><g transform="matrix(1, 0, 0, 1, 5, 0.000000000000003254)"><g clip-path="url(#aad18a5c2a)"><g clip-path="url(#4f073a746a)"><path fill="#2c0971" d="M 131.046875 0.0585938 C 130.953125 -0.0234375 130.8125 -0.0195312 130.726562 0.0742188 L 123.5625 7.878906 C 121.175781 10.480469 118.796875 13.09375 116.445312 15.726562 C 114.097656 18.363281 111.753906 21.007812 109.445312 23.675781 C 107.136719 26.347656 104.859375 29.046875 102.628906 31.78125 C 97.289062 38.167969 92.15625 44.726562 87.15625 51.378906 C 82.171875 58.046875 77.3125 64.804688 72.554688 71.632812 C 70.167969 75.039062 67.792969 78.457031 65.46875 81.914062 C 63.132812 85.355469 60.828125 88.824219 58.589844 92.339844 C 54.59375 98.597656 50.777344 104.980469 47.324219 111.585938 C 45.917969 107.707031 44.453125 103.839844 42.855469 100.011719 C 40.894531 95.339844 38.71875 90.785156 36.402344 86.292969 C 35.242188 84.050781 34.046875 81.816406 32.820312 79.613281 C 31.59375 77.410156 30.347656 75.203125 29.027344 73.027344 C 28.367188 71.9375 27.691406 70.855469 26.992188 69.777344 C 26.640625 69.230469 26.28125 68.703125 25.929688 68.179688 C 25.578125 67.652344 25.214844 67.121094 24.839844 66.589844 C 24.097656 65.527344 23.296875 64.460938 22.414062 63.425781 C 21.964844 62.902344 21.511719 62.410156 20.996094 61.894531 C 20.855469 61.757812 20.726562 61.632812 20.574219 61.488281 L 20.363281 61.308594 L 20.136719 61.117188 C 19.960938 60.976562 19.742188 60.808594 19.453125 60.636719 C 19.171875 60.46875 18.792969 60.296875 18.355469 60.191406 C 18.214844 60.15625 18.054688 60.132812 17.902344 60.128906 L 17.847656 60.128906 C 16.992188 60.101562 16.09375 60.238281 15.28125 60.535156 L 15.453125 60.476562 C 12.746094 61.214844 10.351562 62.449219 8.152344 63.71875 C 7.085938 64.335938 5.9375 65.019531 4.847656 65.800781 C 3.8125 66.539062 2.800781 67.371094 1.863281 68.316406 C 1.433594 68.675781 1.003906 69.171875 0.714844 69.824219 C 0.558594 70.171875 0.453125 70.558594 0.40625 70.945312 C 0.359375 71.335938 0.378906 71.71875 0.4375 72.070312 L 0.445312 72.121094 C 0.546875 72.710938 0.859375 73.265625 1.371094 73.667969 C 1.527344 73.792969 1.691406 73.90625 1.859375 74.011719 L 1.660156 73.878906 C 2.066406 74.1875 2.492188 74.609375 2.945312 75.125 C 3.171875 75.382812 3.40625 75.664062 3.652344 75.960938 L 4 76.382812 L 4.328125 76.820312 C 4.769531 77.390625 5.222656 78.015625 5.664062 78.628906 C 6.105469 79.246094 6.546875 79.867188 6.972656 80.496094 C 8.6875 83.011719 10.292969 85.628906 11.84375 88.304688 C 12.625 89.640625 13.386719 90.992188 14.15625 92.347656 C 14.925781 93.707031 15.695312 95.070312 16.429688 96.40625 C 17.90625 99.113281 19.308594 101.859375 20.652344 104.632812 C 23.34375 110.179688 25.777344 115.84375 27.972656 121.621094 C 29.101562 124.539062 30.214844 127.429688 31.25 130.328125 C 31.769531 131.777344 32.265625 133.226562 32.738281 134.679688 C 32.976562 135.40625 33.203125 136.132812 33.425781 136.863281 L 33.765625 137.992188 L 33.929688 138.527344 C 33.964844 138.636719 34.019531 138.835938 34.136719 139.121094 C 34.199219 139.265625 34.28125 139.429688 34.382812 139.605469 C 34.492188 139.789062 34.625 139.980469 34.785156 140.164062 C 34.867188 140.257812 34.960938 140.355469 35.054688 140.4375 L 35.066406 140.449219 C 35.46875 140.804688 35.984375 141.097656 36.476562 141.261719 C 36.972656 141.429688 37.421875 141.480469 37.785156 141.492188 C 38.511719 141.507812 38.964844 141.402344 39.234375 141.363281 C 39.308594 141.351562 39.386719 141.335938 39.460938 141.316406 L 39.488281 141.3125 C 40.5 141.054688 41.46875 140.722656 42.394531 140.34375 C 42.859375 140.15625 43.3125 139.953125 43.753906 139.746094 L 44.414062 139.425781 L 45.074219 139.085938 L 46.277344 138.425781 C 46.675781 138.203125 47.082031 137.976562 47.484375 137.738281 C 48.296875 137.261719 49.121094 136.75 49.933594 136.171875 L 51.027344 135.382812 C 51.40625 135.105469 51.800781 134.8125 52.195312 134.488281 C 52.59375 134.164062 52.996094 133.816406 53.390625 133.421875 C 53.589844 133.226562 53.785156 133.023438 53.976562 132.804688 C 54.167969 132.589844 54.363281 132.351562 54.570312 132.066406 C 55.332031 131 55.746094 129.933594 56.074219 129.058594 L 56.984375 126.601562 C 59.355469 120.066406 61.941406 113.617188 64.84375 107.339844 C 65.570312 105.765625 66.304688 104.214844 67.082031 102.667969 C 67.859375 101.113281 68.648438 99.5625 69.449219 98.015625 C 71.0625 94.929688 72.703125 91.851562 74.382812 88.785156 C 76.0625 85.726562 77.765625 82.65625 79.476562 79.613281 C 81.191406 76.566406 82.9375 73.53125 84.695312 70.503906 C 88.21875 64.453125 91.804688 58.433594 95.46875 52.460938 C 97.300781 49.472656 99.152344 46.5 101.039062 43.554688 C 101.980469 42.082031 102.941406 40.621094 103.914062 39.160156 C 104.871094 37.679688 105.835938 36.230469 106.816406 34.777344 C 110.742188 28.976562 114.824219 23.261719 118.863281 17.515625 L 121.898438 13.207031 L 123.402344 11.050781 C 123.90625 10.328125 124.421875 9.621094 124.929688 8.90625 L 131.074219 0.359375 L 131.078125 0.351562 C 131.144531 0.261719 131.132812 0.136719 131.046875 0.0585938 Z M 131.046875 0.0585938 " fill-opacity="1" fill-rule="nonzero"/></g><path fill="#404040" d="M 27.871094 79.839844 C 27.246094 78.714844 26.542969 77.632812 25.875 76.535156 C 24.578125 74.484375 23.324219 72.398438 21.863281 70.457031 C 20.914062 69.214844 19.800781 68.089844 18.507812 67.210938 C 17.632812 66.605469 16.679688 66.0625 15.625 65.859375 C 14.863281 65.71875 14.0625 65.730469 13.308594 65.917969 C 12.394531 66.167969 11.371094 66.832031 11.019531 67.070312 C 10.523438 67.398438 10.507812 67.410156 9.867188 67.828125 C 9.902344 67.800781 9.925781 67.789062 9.851562 67.835938 C 9.765625 67.894531 9.675781 67.929688 9.597656 67.992188 C 9.585938 68 9.578125 68.003906 9.570312 68.007812 C 9.457031 68.074219 9.316406 68.105469 9.246094 68.226562 C 8.953125 68.511719 8.597656 69.804688 9.035156 70.027344 C 9.117188 70.058594 9.203125 70.046875 9.285156 70.066406 C 9.390625 70.070312 9.484375 70.03125 9.585938 70.019531 C 9.613281 70.011719 9.636719 70.007812 9.664062 70 C 9.65625 70 9.644531 70.003906 9.632812 70.003906 C 9.816406 69.96875 9.984375 69.855469 10.160156 69.785156 C 10.746094 69.527344 11.289062 69.191406 11.863281 68.914062 C 12.898438 68.449219 13.324219 68.371094 14.371094 68.46875 C 15.226562 68.554688 16.035156 68.894531 16.765625 69.332031 C 17.441406 69.746094 17.632812 69.859375 18.378906 70.445312 C 19.648438 71.480469 20.726562 72.714844 21.734375 74 C 22.78125 75.34375 23.765625 76.726562 24.75 78.113281 C 25.691406 79.410156 26.542969 80.769531 27.539062 82.023438 C 28.40625 83.101562 29.355469 84.117188 30.335938 85.09375 C 29.542969 83.195312 28.71875 81.386719 27.871094 79.839844 Z M 27.871094 79.839844 " fill-opacity="1" fill-rule="nonzero"/></g></g></g></svg>