<svg xmlns="http://www.w3.org/2000/svg" xmlns:xlink="http://www.w3.org/1999/xlink" width="1123" zoomAndPan="magnify" viewBox="0 0 842.25 283.499996" height="378" preserveAspectRatio="xMidYMid meet" version="1.0"><defs><clipPath id="6afe57fd0f"><path d="M 0.945312 0.738281 L 500.464844 0.738281 L 500.464844 76.203125 L 0.945312 76.203125 Z M 0.945312 0.738281 " clip-rule="nonzero"/></clipPath><clipPath id="90e1d2557e"><path d="M 1.015625 0.816406 L 76.382812 0.816406 L 76.382812 76.183594 L 1.015625 76.183594 Z M 1.015625 0.816406 " clip-rule="nonzero"/></clipPath><clipPath id="1608364309"><path d="M 38.699219 0.816406 C 17.886719 0.816406 1.015625 17.6875 1.015625 38.5 C 1.015625 59.3125 17.886719 76.183594 38.699219 76.183594 C 59.511719 76.183594 76.382812 59.3125 76.382812 38.5 C 76.382812 17.6875 59.511719 0.816406 38.699219 0.816406 Z M 38.699219 0.816406 " clip-rule="nonzero"/></clipPath><clipPath id="4c30be3011"><path d="M 0.015625 0.816406 L 75.382812 0.816406 L 75.382812 76.183594 L 0.015625 76.183594 Z M 0.015625 0.816406 " clip-rule="nonzero"/></clipPath><clipPath id="fb816c91b6"><path d="M 37.699219 0.816406 C 16.886719 0.816406 0.015625 17.6875 0.015625 38.5 C 0.015625 59.3125 16.886719 76.183594 37.699219 76.183594 C 58.511719 76.183594 75.382812 59.3125 75.382812 38.5 C 75.382812 17.6875 58.511719 0.816406 37.699219 0.816406 Z M 37.699219 0.816406 " clip-rule="nonzero"/></clipPath><clipPath id="0c292ebc65"><rect x="0" width="76" y="0" height="77"/></clipPath><clipPath id="e38ccf6d5f"><path d="M 142.292969 0.816406 L 217.65625 0.816406 L 217.65625 76.183594 L 142.292969 76.183594 Z M 142.292969 0.816406 " clip-rule="nonzero"/></clipPath><clipPath id="55ec1fff3c"><path d="M 179.976562 0.816406 C 159.164062 0.816406 142.292969 17.6875 142.292969 38.5 C 142.292969 59.3125 159.164062 76.183594 179.976562 76.183594 C 200.785156 76.183594 217.65625 59.3125 217.65625 38.5 C 217.65625 17.6875 200.785156 0.816406 179.976562 0.816406 Z M 179.976562 0.816406 " clip-rule="nonzero"/></clipPath><clipPath id="47c764186a"><path d="M 0.292969 0.816406 L 75.65625 0.816406 L 75.65625 76.183594 L 0.292969 76.183594 Z M 0.292969 0.816406 " clip-rule="nonzero"/></clipPath><clipPath id="bca3022366"><path d="M 37.976562 0.816406 C 17.164062 0.816406 0.292969 17.6875 0.292969 38.5 C 0.292969 59.3125 17.164062 76.183594 37.976562 76.183594 C 58.785156 76.183594 75.65625 59.3125 75.65625 38.5 C 75.65625 17.6875 58.785156 0.816406 37.976562 0.816406 Z M 37.976562 0.816406 " clip-rule="nonzero"/></clipPath><clipPath id="31b0b405f8"><rect x="0" width="76" y="0" height="77"/></clipPath><clipPath id="88d7ad6315"><path d="M 283.578125 0.816406 L 358.945312 0.816406 L 358.945312 76.183594 L 283.578125 76.183594 Z M 283.578125 0.816406 " clip-rule="nonzero"/></clipPath><clipPath id="3b6b69f43e"><path d="M 321.261719 0.816406 C 300.449219 0.816406 283.578125 17.6875 283.578125 38.5 C 283.578125 59.3125 300.449219 76.183594 321.261719 76.183594 C 342.074219 76.183594 358.945312 59.3125 358.945312 38.5 C 358.945312 17.6875 342.074219 0.816406 321.261719 0.816406 Z M 321.261719 0.816406 " clip-rule="nonzero"/></clipPath><clipPath id="908986fea3"><path d="M 0.578125 0.816406 L 75.945312 0.816406 L 75.945312 76.183594 L 0.578125 76.183594 Z M 0.578125 0.816406 " clip-rule="nonzero"/></clipPath><clipPath id="69a6a36401"><path d="M 38.261719 0.816406 C 17.449219 0.816406 0.578125 17.6875 0.578125 38.5 C 0.578125 59.3125 17.449219 76.183594 38.261719 76.183594 C 59.074219 76.183594 75.945312 59.3125 75.945312 38.5 C 75.945312 17.6875 59.074219 0.816406 38.261719 0.816406 Z M 38.261719 0.816406 " clip-rule="nonzero"/></clipPath><clipPath id="3b5814b921"><rect x="0" width="76" y="0" height="77"/></clipPath><clipPath id="3359ba2bc7"><path d="M 424.863281 0.816406 L 500.230469 0.816406 L 500.230469 76.183594 L 424.863281 76.183594 Z M 424.863281 0.816406 " clip-rule="nonzero"/></clipPath><clipPath id="0622b783d1"><path d="M 462.546875 0.816406 C 441.734375 0.816406 424.863281 17.6875 424.863281 38.5 C 424.863281 59.3125 441.734375 76.183594 462.546875 76.183594 C 483.359375 76.183594 500.230469 59.3125 500.230469 38.5 C 500.230469 17.6875 483.359375 0.816406 462.546875 0.816406 Z M 462.546875 0.816406 " clip-rule="nonzero"/></clipPath><clipPath id="1105fdd0ca"><path d="M 0.863281 0.816406 L 76.230469 0.816406 L 76.230469 76.183594 L 0.863281 76.183594 Z M 0.863281 0.816406 " clip-rule="nonzero"/></clipPath><clipPath id="505142d763"><path d="M 38.546875 0.816406 C 17.734375 0.816406 0.863281 17.6875 0.863281 38.5 C 0.863281 59.3125 17.734375 76.183594 38.546875 76.183594 C 59.359375 76.183594 76.230469 59.3125 76.230469 38.5 C 76.230469 17.6875 59.359375 0.816406 38.546875 0.816406 Z M 38.546875 0.816406 " clip-rule="nonzero"/></clipPath><clipPath id="a6eb65f490"><rect x="0" width="77" y="0" height="77"/></clipPath><clipPath id="dffb5e08e8"><rect x="0" width="501" y="0" height="77"/></clipPath><clipPath id="06e77db9e6"><rect x="0" width="501" y="0" height="77"/></clipPath></defs><g transform="matrix(1, 0, 0, 1, 170, 103)"><g clip-path="url(#06e77db9e6)"><g clip-path="url(#6afe57fd0f)"><g transform="matrix(1, 0, 0, 1, -0.000000000000028422, -0.000000000000028422)"><g clip-path="url(#dffb5e08e8)"><g clip-path="url(#90e1d2557e)"><g clip-path="url(#1608364309)"><g transform="matrix(1, 0, 0, 1, 1, -0.000000000000028422)"><g clip-path="url(#0c292ebc65)"><g clip-path="url(#4c30be3011)"><g clip-path="url(#fb816c91b6)"><path fill="#8c52ff" d="M 0.015625 0.816406 L 75.382812 0.816406 L 75.382812 76.183594 L 0.015625 76.183594 Z M 0.015625 0.816406 " fill-opacity="1" fill-rule="nonzero"/></g></g></g></g></g></g><g clip-path="url(#e38ccf6d5f)"><g clip-path="url(#55ec1fff3c)"><g transform="matrix(1, 0, 0, 1, 142, -0.000000000000028422)"><g clip-path="url(#31b0b405f8)"><g clip-path="url(#47c764186a)"><g clip-path="url(#bca3022366)"><path fill="#8c52ff" d="M 0.292969 0.816406 L 75.65625 0.816406 L 75.65625 76.183594 L 0.292969 76.183594 Z M 0.292969 0.816406 " fill-opacity="1" fill-rule="nonzero"/></g></g></g></g></g></g><g clip-path="url(#88d7ad6315)"><g clip-path="url(#3b6b69f43e)"><g transform="matrix(1, 0, 0, 1, 283, -0.000000000000028422)"><g clip-path="url(#3b5814b921)"><g clip-path="url(#908986fea3)"><g clip-path="url(#69a6a36401)"><path fill="#8c52ff" d="M 0.578125 0.816406 L 75.945312 0.816406 L 75.945312 76.183594 L 0.578125 76.183594 Z M 0.578125 0.816406 " fill-opacity="1" fill-rule="nonzero"/></g></g></g></g></g></g><g clip-path="url(#3359ba2bc7)"><g clip-path="url(#0622b783d1)"><g transform="matrix(1, 0, 0, 1, 424, -0.000000000000028422)"><g clip-path="url(#a6eb65f490)"><g clip-path="url(#1105fdd0ca)"><g clip-path="url(#505142d763)"><path fill="#8c52ff" d="M 0.863281 0.816406 L 76.230469 0.816406 L 76.230469 76.183594 L 0.863281 76.183594 Z M 0.863281 0.816406 " fill-opacity="1" fill-rule="nonzero"/></g></g></g></g></g></g></g></g></g><path stroke-linecap="butt" transform="matrix(0.748773, 0.000000000000000072, -0.000000000000000072, 0.748773, 36.076217, 32.135867)" fill="none" stroke-linejoin="miter" d="M 0.00254778 8.499414 L 592.320409 8.499414 " stroke="#8c52ff" stroke-width="17" stroke-opacity="1" stroke-miterlimit="4"/></g></g></svg>